<svg width="414" height="896" viewBox="0 0 414 896" fill="none" xmlns="http://www.w3.org/2000/svg">
<rect width="414" height="896" fill="#39B54A"/>
<path d="M320.412 19.45H318.987C318.725 19.45 318.512 19.6626 318.512 19.925V25.625C318.512 25.8875 318.725 26.1 318.987 26.1H320.412C320.675 26.1 320.887 25.8875 320.887 25.625V19.925C320.887 19.6626 320.675 19.45 320.412 19.45ZM316.612 22.3H315.187C314.925 22.3 314.712 22.5126 314.712 22.775V25.625C314.712 25.8875 314.925 26.1 315.187 26.1H316.612C316.875 26.1 317.087 25.8875 317.087 25.625V22.775C317.087 22.5126 316.875 22.3 316.612 22.3ZM324.212 16.6H322.787C322.525 16.6 322.312 16.8126 322.312 17.075V25.625C322.312 25.8875 322.525 26.1 322.787 26.1H324.212C324.475 26.1 324.687 25.8875 324.687 25.625V17.075C324.687 16.8126 324.475 16.6 324.212 16.6ZM328.012 13.75H326.587C326.325 13.75 326.112 13.9626 326.112 14.225V25.625C326.112 25.8875 326.325 26.1 326.587 26.1H328.012C328.275 26.1 328.487 25.8875 328.487 25.625V14.225C328.487 13.9626 328.275 13.75 328.012 13.75ZM331.812 10.9H330.387C330.125 10.9 329.912 11.1126 329.912 11.375V25.625C329.912 25.8875 330.125 26.1 330.387 26.1H331.812C332.075 26.1 332.287 25.8875 332.287 25.625V11.375C332.287 11.1126 332.075 10.9 331.812 10.9Z" fill="white"/>
<g clip-path="url(#clip0_841_55848)">
<path d="M360.849 15.498C355.589 10.6331 347.409 10.6349 342.151 15.498C341.953 15.6809 341.95 15.9905 342.141 16.1802L343.157 17.1887C343.34 17.3698 343.633 17.3736 343.822 17.2C348.154 13.2313 354.845 13.2304 359.178 17.2C359.367 17.3736 359.661 17.3695 359.843 17.1887L360.86 16.1802C361.05 15.9905 361.047 15.6809 360.849 15.498ZM351.5 21.35C350.451 21.35 349.6 22.2005 349.6 23.25C349.6 24.2994 350.451 25.15 351.5 25.15C352.549 25.15 353.4 24.2994 353.4 23.25C353.4 22.2005 352.549 21.35 351.5 21.35ZM357.517 18.8684C354.095 15.8424 348.901 15.8456 345.483 18.8684C345.278 19.0495 345.272 19.3639 345.466 19.5557L346.489 20.5647C346.667 20.7405 346.954 20.7524 347.143 20.5885C349.636 18.4341 353.37 18.4388 355.856 20.5885C356.046 20.7524 356.333 20.7408 356.511 20.5647L357.533 19.5557C357.728 19.3639 357.721 19.0492 357.517 18.8684V18.8684Z" fill="white"/>
</g>
<path d="M386.15 15.65V17.55H387.1V19.45H386.15V21.35H371.9V15.65H386.15ZM386.625 13.75H371.425C370.638 13.75 370 14.388 370 15.175V21.825C370 22.612 370.638 23.25 371.425 23.25H386.625C387.412 23.25 388.05 22.612 388.05 21.825V21.35H388.287C388.681 21.35 389 21.031 389 20.6375V16.3625C389 15.969 388.681 15.65 388.287 15.65H388.05V15.175C388.05 14.388 387.412 13.75 386.625 13.75ZM382.35 16.6H372.85V20.4H382.35V16.6Z" fill="white"/>
<path d="M28.206 21.004C28.346 21.7413 28.7753 22.11 29.494 22.11C29.9887 22.11 30.3387 21.8907 30.544 21.452C30.7493 21.0133 30.852 20.2993 30.852 19.31C30.6467 19.5993 30.3667 19.8233 30.012 19.982C29.6573 20.1407 29.2607 20.22 28.822 20.22C28.2247 20.22 27.6927 20.0987 27.226 19.856C26.7593 19.604 26.3907 19.2353 26.12 18.75C25.8587 18.2553 25.728 17.658 25.728 16.958C25.728 16.2673 25.868 15.6653 26.148 15.152C26.4373 14.6387 26.8433 14.242 27.366 13.962C27.898 13.682 28.5233 13.542 29.242 13.542C30.6233 13.542 31.5893 13.9713 32.14 14.83C32.6907 15.6887 32.966 16.9533 32.966 18.624C32.966 19.8373 32.854 20.8407 32.63 21.634C32.4153 22.418 32.0467 23.0153 31.524 23.426C31.0107 23.8367 30.306 24.042 29.41 24.042C28.7007 24.042 28.094 23.902 27.59 23.622C27.0953 23.342 26.7127 22.9733 26.442 22.516C26.1807 22.0587 26.0313 21.5547 25.994 21.004H28.206ZM29.368 18.33C29.76 18.33 30.0727 18.2133 30.306 17.98C30.5393 17.7373 30.656 17.4107 30.656 17C30.656 16.552 30.5347 16.2067 30.292 15.964C30.0493 15.7213 29.7227 15.6 29.312 15.6C28.9013 15.6 28.5747 15.726 28.332 15.978C28.0987 16.2207 27.982 16.5567 27.982 16.986C27.982 17.3873 28.0987 17.714 28.332 17.966C28.5747 18.2087 28.92 18.33 29.368 18.33ZM36.0613 24.112C35.6413 24.112 35.2959 23.9907 35.0253 23.748C34.7639 23.496 34.6333 23.188 34.6333 22.824C34.6333 22.4507 34.7639 22.138 35.0253 21.886C35.2959 21.634 35.6413 21.508 36.0613 21.508C36.4719 21.508 36.8079 21.634 37.0693 21.886C37.3399 22.138 37.4753 22.4507 37.4753 22.824C37.4753 23.188 37.3399 23.496 37.0693 23.748C36.8079 23.9907 36.4719 24.112 36.0613 24.112ZM36.0613 18.414C35.6413 18.414 35.2959 18.2927 35.0253 18.05C34.7639 17.798 34.6333 17.49 34.6333 17.126C34.6333 16.7527 34.7639 16.44 35.0253 16.188C35.2959 15.936 35.6413 15.81 36.0613 15.81C36.4719 15.81 36.8079 15.936 37.0693 16.188C37.3399 16.44 37.4753 16.7527 37.4753 17.126C37.4753 17.49 37.3399 17.798 37.0693 18.05C36.8079 18.2927 36.4719 18.414 36.0613 18.414ZM39.1978 22.18V20.248L43.6218 13.92H46.2958V20.108H47.4438V22.18H46.2958V24H43.9018V22.18H39.1978ZM44.0698 16.552L41.7178 20.108H44.0698V16.552ZM48.8244 16.006V13.78H52.7024V24H50.2104V16.006H48.8244ZM60.8589 17.294C61.0922 16.93 61.4142 16.636 61.8249 16.412C62.2355 16.188 62.7162 16.076 63.2669 16.076C63.9109 16.076 64.4942 16.2393 65.0169 16.566C65.5395 16.8927 65.9502 17.3593 66.2489 17.966C66.5569 18.5727 66.7109 19.2773 66.7109 20.08C66.7109 20.8827 66.5569 21.592 66.2489 22.208C65.9502 22.8147 65.5395 23.286 65.0169 23.622C64.4942 23.9487 63.9109 24.112 63.2669 24.112C62.7255 24.112 62.2449 24 61.8249 23.776C61.4142 23.552 61.0922 23.2627 60.8589 22.908V27.724H58.4649V16.188H60.8589V17.294ZM64.2749 20.08C64.2749 19.4827 64.1069 19.016 63.7709 18.68C63.4442 18.3347 63.0382 18.162 62.5529 18.162C62.0769 18.162 61.6709 18.3347 61.3349 18.68C61.0082 19.0253 60.8449 19.4967 60.8449 20.094C60.8449 20.6913 61.0082 21.1627 61.3349 21.508C61.6709 21.8533 62.0769 22.026 62.5529 22.026C63.0289 22.026 63.4349 21.8533 63.7709 21.508C64.1069 21.1533 64.2749 20.6773 64.2749 20.08ZM78.3948 16.104C79.3655 16.104 80.1355 16.398 80.7048 16.986C81.2835 17.574 81.5728 18.3907 81.5728 19.436V24H79.1928V19.758C79.1928 19.254 79.0575 18.8667 78.7868 18.596C78.5255 18.316 78.1615 18.176 77.6948 18.176C77.2282 18.176 76.8595 18.316 76.5888 18.596C76.3275 18.8667 76.1968 19.254 76.1968 19.758V24H73.8168V19.758C73.8168 19.254 73.6815 18.8667 73.4108 18.596C73.1495 18.316 72.7855 18.176 72.3188 18.176C71.8522 18.176 71.4835 18.316 71.2128 18.596C70.9515 18.8667 70.8208 19.254 70.8208 19.758V24H68.4268V16.188H70.8208V17.168C71.0635 16.8413 71.3808 16.5847 71.7728 16.398C72.1648 16.202 72.6082 16.104 73.1028 16.104C73.6908 16.104 74.2135 16.23 74.6708 16.482C75.1375 16.734 75.5015 17.0933 75.7628 17.56C76.0335 17.1307 76.4022 16.7807 76.8688 16.51C77.3355 16.2393 77.8442 16.104 78.3948 16.104Z" fill="white"/>
<path d="M206.725 501.718C217.318 501.718 225.906 500.376 225.906 498.72C225.906 497.063 217.318 495.721 206.725 495.721C196.133 495.721 187.545 497.063 187.545 498.72C187.545 500.376 196.133 501.718 206.725 501.718Z" fill="#F4F6F8"/>
<path d="M205.318 487.058C202.213 483.487 186.559 465.02 181.037 456.372C177.322 450.31 175.205 443.417 174.883 436.328C174.883 427.964 178.227 419.942 184.181 414.024C190.135 408.105 198.213 404.775 206.639 404.764H206.807C215.227 404.775 223.299 408.094 229.26 413.995C235.221 419.897 238.586 427.901 238.62 436.259C238.317 443.366 236.215 450.284 232.507 456.372C227.238 464.615 212.667 481.967 208.325 487.058L206.723 488.899L205.318 487.058Z" fill="white"/>
<path d="M206.822 406.606C214.748 406.606 222.351 409.729 227.96 415.289C233.569 420.849 236.726 428.391 236.737 436.259C236.417 442.995 234.419 449.547 230.92 455.327C225.398 464.002 209.253 483.111 206.892 485.901L206.808 485.999L206.723 485.901C204.349 483.111 188.147 464.044 182.611 455.396C179.095 449.621 177.081 443.069 176.752 436.329C176.748 432.43 177.518 428.567 179.018 424.963C180.518 421.359 182.719 418.083 185.494 415.323C188.269 412.563 191.565 410.373 195.193 408.877C198.821 407.381 202.71 406.609 206.639 406.606H206.836H206.822ZM206.836 402.882H206.639C197.712 402.904 189.158 406.439 182.852 412.711C176.547 418.983 173.004 427.482 173 436.343C173.335 443.786 175.553 451.024 179.45 457.391C185.07 466.122 200.709 484.618 203.843 488.286V488.356L206.653 491.787L209.66 488.453L209.744 488.356C214.1 483.209 228.742 465.76 234.081 457.377C237.956 450.98 240.145 443.718 240.447 436.259C240.424 427.396 236.861 418.903 230.54 412.643C224.218 406.383 215.653 402.868 206.723 402.868L206.836 402.882Z" fill="white"/>
<path d="M236.541 439.116C220.003 447.236 207.083 461.15 200.274 478.171C203.407 481.951 205.895 484.894 206.738 485.857L206.822 485.954L206.906 485.857C209.267 483.067 225.426 463.958 230.948 455.296C233.926 450.348 235.831 444.837 236.541 439.116V439.116Z" fill="#39B54A"/>
<path d="M236.739 436.219C235.137 436.117 233.521 436.065 231.891 436.065C213.587 436.04 195.923 442.743 182.304 454.881L182.613 455.384C184.018 457.657 186.252 460.642 188.725 463.85C200.694 449.196 217.868 439.657 236.71 437.195C236.71 436.846 236.71 436.54 236.71 436.261L236.739 436.219Z" fill="#39B54A"/>
<path d="M181.433 453.482C184.366 450.99 187.49 448.729 190.777 446.717C186.434 443.752 181.784 441.255 176.908 439.269C177.564 444.234 179.095 449.045 181.433 453.482V453.482Z" fill="#8DC63F"/>
<path d="M176.947 439.008C182.043 440.916 186.91 443.377 191.462 446.344C193.621 445.052 195.844 443.869 198.123 442.802C191.32 439.984 184.13 438.193 176.793 437.487C176.835 437.948 176.877 438.45 176.947 439.008Z" fill="#8DC63F"/>
<path d="M176.749 436.381V437.302C184.424 437.811 191.971 439.505 199.119 442.323C201.754 441.139 204.457 440.11 207.213 439.241C197.475 435.657 186.955 434.695 176.721 436.451L176.749 436.381Z" fill="#8DC63F"/>
<path d="M186.7 434.864C194.075 434.859 201.384 436.241 208.24 438.937C215.235 436.84 222.503 435.777 229.809 435.785C232.142 435.785 234.451 435.892 236.737 436.106C236.685 428.259 233.506 420.752 227.895 415.224C222.285 409.696 214.698 406.598 206.793 406.605H206.639C198.815 406.615 191.307 409.666 185.723 415.104C180.139 420.543 176.923 427.937 176.765 435.701C180.047 435.144 183.37 434.864 186.7 434.864V434.864Z" fill="white"/>
<path d="M236.584 438.729C236.584 438.282 236.668 437.864 236.697 437.487C218.06 440.431 201.25 450.305 189.681 465.105C192.758 469.066 196.186 473.292 199.179 476.919C206.445 460.025 219.776 446.414 236.584 438.729V438.729Z" fill="#39B54A"/>
<path d="M197.266 409.113L206.751 397.899L216.235 409.113H197.266Z" fill="#FBB040"/>
<path d="M206.721 400.802L212.201 407.246H201.297L206.721 400.802ZM206.721 395L203.911 398.403L198.417 404.847L193.232 410.985H220.267L215.152 404.847L209.63 398.403L206.721 395Z" fill="white"/>
<path d="M209.421 406.703L206.723 400.803L204.053 406.703C198.188 407.228 192.608 409.453 188.006 413.101C183.404 416.749 179.984 421.659 178.17 427.22H235.317C233.503 421.657 230.081 416.745 225.476 413.097C220.872 409.449 215.288 407.225 209.421 406.703V406.703Z" fill="#FBB040"/>
<rect x="203" y="429" width="7" height="7" rx="3.5" fill="white"/>
<defs>
<clipPath id="clip0_841_55848">
<rect width="19" height="19" fill="white" transform="translate(342 9)"/>
</clipPath>
</defs>
</svg>
